<svg width="65" height="65" viewBox="0 0 65 65" fill="none" xmlns="http://www.w3.org/2000/svg">
<path d="M38.4897 42.0688L38.2522 42.2401L38.2856 42.5311C39.1116 49.7438 38.7854 52.8202 36.6213 54.9797C35.5127 56.0861 33.8874 56.9876 31.5483 58.033C30.3981 58.547 29.0901 59.0897 27.6016 59.7074L27.5455 59.7306C26.0357 60.3571 24.3456 61.0589 22.4625 61.8799C21.1168 62.4666 20.4463 62.1965 20.1501 61.8264C19.8038 61.3936 19.7074 60.5405 20.084 59.4987L20.0842 59.4983L22.6614 52.3516L22.7678 52.0565L22.5485 51.8323L14.131 43.2263L13.9026 42.9928L13.597 43.1082L6.61596 45.7439L6.61533 45.7442C5.60387 46.1276 4.78384 46.027 4.36875 45.679C4.00215 45.3717 3.73814 44.6701 4.3159 43.2878L4.31617 43.2871C5.13692 41.3157 5.8266 39.5746 6.44155 38.0222C7.03969 36.5122 7.56712 35.1807 8.0757 33.9893C9.09792 31.5946 9.98023 29.9296 11.0626 28.7942C13.1682 26.5856 16.1623 26.2505 23.2106 27.0944L23.5105 27.1303L23.6818 26.8817L23.2701 26.598L23.6818 26.8816L23.6822 26.8811L23.6841 26.8783L23.6923 26.8666L23.7261 26.8183C23.7563 26.7752 23.8019 26.7108 23.8624 26.6266C23.9834 26.458 24.1641 26.2101 24.401 25.8947C24.8749 25.2639 25.5737 24.364 26.4704 23.2914C28.2645 21.1452 30.8467 18.3126 34.0007 15.5629C40.3316 10.0434 48.8577 4.95151 57.891 6.22158L57.9065 6.22377L57.9222 6.22498C58.1196 6.24016 58.3064 6.31875 58.4551 6.44862C58.5858 6.60822 58.6647 6.80418 58.6809 7.01027L58.6819 7.02405L58.6838 7.03776C59.9274 16.2973 54.943 25.031 49.5508 31.5081C46.8634 34.7363 44.0951 37.3791 41.9979 39.2152C40.9497 40.1328 40.0703 40.8479 39.4539 41.3329C39.1458 41.5754 38.9035 41.7602 38.7389 41.884C38.6565 41.9459 38.5936 41.9926 38.5516 42.0235L38.5044 42.0581L38.493 42.0664L38.4903 42.0683L38.4898 42.0687L38.7823 42.4742L38.4897 42.0688ZM41.7023 23.5949L41.7027 23.5954C42.2065 24.1146 42.8094 24.5273 43.4756 24.8092C44.1419 25.0911 44.8579 25.2363 45.5813 25.2363C46.3047 25.2363 47.0208 25.0911 47.687 24.8092C48.3533 24.5273 48.9562 24.1146 49.4599 23.5954L49.4604 23.5949C50.4857 22.5355 51.0589 21.1189 51.0589 19.6446C51.0589 18.1703 50.4857 16.7537 49.4604 15.6942L49.4599 15.6938C48.9562 15.1746 48.3533 14.7618 47.687 14.4799C47.0208 14.1981 46.3047 14.0528 45.5813 14.0528C44.8579 14.0528 44.1419 14.1981 43.4756 14.4799C42.8094 14.7618 42.2065 15.1746 41.7027 15.6938L41.7023 15.6942C40.677 16.7537 40.1038 18.1703 40.1038 19.6446C40.1038 21.1189 40.677 22.5355 41.7023 23.5949Z" fill="#FF6D2C" stroke="black"/>
</svg>
